<?xml version="1.0" encoding="utf-8"?>
<!-- Generator: Adobe Illustrator 20.0.0, SVG Export Plug-In . SVG Version: 6.00 Build 0)  -->
<svg version="1.1" id="Layer_1" xmlns="http://www.w3.org/2000/svg" xmlns:xlink="http://www.w3.org/1999/xlink" x="0px" y="0px"
	 viewBox="0 0 4402.3 1894.3" style="enable-background:new 0 0 4402.3 1894.3;" xml:space="preserve">
<style type="text/css">
	.st0{clip-path:url(#SVGID_2_);fill:#F7F7F7;}
	.st1{clip-path:url(#SVGID_2_);fill:#F65958;}
	.st2{clip-path:url(#SVGID_2_);fill:none;}
</style>
<g>
	<defs>
		<rect id="SVGID_1_" width="4402.3" height="1894.3"/>
	</defs>
	<clipPath id="SVGID_2_">
		<use xlink:href="#SVGID_1_"  style="overflow:visible;"/>
	</clipPath>
	<rect x="-858.6" y="-259.7" class="st0" width="5458.3" height="2761"/>
	<path class="st1" d="M4830.7,1904.9c-180.7,91.8-327.6,110.2-450.1,110.2c-376.4,0-630.5-128.6-802-296.9
		c-183.7-177.6-318.3-447-318.3-774.5c0-321.4,134.6-590.8,318.3-768.3c180.7-174.5,444-293.9,762.3-293.9
		c134.6,0,290.8,27.6,489.9,113.3v544.9c-104.2-110.2-275.5-217.4-492.8-217.4c-171.4,0-278.7,24.6-385.9,128.7
		c-113.3,110.2-208,305.9-208,501.9c0,211.2,100.9,391.7,192.8,480.5c42.7,42.8,159.3,141,410.3,141c122.5,0,303-33.7,483.7-211.2
		V1904.9z"/>
	<path class="st1" d="M2485-153.9v886.2v414.9v107.9c0,176.8-141.7,320.1-318.5,320.1S1848,1431.8,1848,1255.1v-107.9V785.6v-939.6
		h-496v1312.4c0,182.9,30.4,408.6,219,602.9c182.9,188.6,394.3,217.2,594.4,217.2c200,0,412.6-28.6,595.4-217.2
		c188.6-194.3,220.2-420,220.2-602.9V-153.9H2485z"/>
	<path class="st2" d="M477,371.2c-75.1-54.6-187.7-59.2-247.8-59.2H6v525h220.3c84.1,0,190.7-9.2,268.8-84
		c33.2-31.6,82.7-91.7,82.7-186.6C577.8,457.3,516.2,400,477,371.2z"/>
	<path class="st1" d="M708.8,1126.2c291.1-149.3,360-427.6,360-584.9c0-227-100.2-365.5-186.1-448.3C784.4,1,654.1-91.9,369-91.9
		h-721v2045l243-425v-288h362l410.7,713.2l560.9,25.7L708.8,1126.2z M495.1,753.1c-78,74.8-184.7,84-268.8,84H-72v-525h301.2
		c60.1,0,172.7,4.5,247.8,59.2c39.2,28.8,100.8,86,100.8,195.3C577.8,661.4,528.2,721.5,495.1,753.1z"/>
</g>
</svg>
